<svg width="7" height="7" viewBox="0 0 7 7" fill="none" xmlns="http://www.w3.org/2000/svg">
<path d="M4.81471 6.11187C2.3855 6.60494 0.890606 4.84397 0.0497265 3.43519C-0.137136 3.08299 0.23658 2.7308 0.610304 2.7308C0.516873 2.51948 0.51689 2.30817 0.51689 2.09685C0.703752 1.39246 1.54462 0.758503 2.29207 0.335869C4.34755 -0.791157 5.74901 1.18114 6.40303 2.37861C7.05705 3.64651 6.96362 5.6188 4.81471 6.11187ZM4.62785 1.8151C4.53442 1.67422 4.441 1.39245 4.25413 1.32201C3.78698 1.04026 2.66579 1.18115 2.29207 1.39246C1.45119 1.8151 1.45118 2.58992 1.8249 3.22387C2.1052 3.71694 2.29208 3.9987 2.19865 4.3509C2.66581 4.84397 3.31983 5.12572 4.06727 5.12572C6.40305 4.98485 5.28187 2.66037 4.62785 1.8151Z" fill="#C1272D"/>
</svg>
